<svg width="28" height="28" viewBox="0 0 28 28" fill="none" xmlns="http://www.w3.org/2000/svg">
<path fill-rule="evenodd" clip-rule="evenodd" d="M13.528 3.84009C10.7723 3.84009 10.4274 3.85159 9.34512 3.90096C8.2649 3.95034 7.52695 4.12215 6.88166 4.37309C6.20526 4.62742 5.59176 5.0265 5.08446 5.54327C4.56852 6.04998 4.16919 6.66305 3.91429 7.33979C3.66469 7.98508 3.49221 8.72371 3.44283 9.80392C3.39413 10.8855 3.38196 11.2298 3.38196 13.9861C3.38196 16.7425 3.39346 17.0867 3.44283 18.169C3.49221 19.2492 3.66402 19.9872 3.91496 20.6324C4.16929 21.3088 4.56837 21.9223 5.08514 22.4296C5.59187 22.9456 6.20493 23.3449 6.88166 23.5998C7.52695 23.8501 8.2649 24.0219 9.34512 24.0713C10.4274 24.1206 10.7723 24.1321 13.528 24.1321C16.2836 24.1321 16.6286 24.1206 17.7109 24.0713C18.7911 24.0219 19.529 23.8501 20.1743 23.5991C20.8507 23.3448 21.4642 22.9457 21.9715 22.429C22.4875 21.9222 22.8868 21.3092 23.1417 20.6324C23.392 19.9872 23.5638 19.2492 23.6131 18.169C23.6625 17.0867 23.674 16.7418 23.674 13.9861C23.674 11.2305 23.6625 10.8855 23.6131 9.80325C23.5638 8.72303 23.392 7.98508 23.141 7.33979C22.8863 6.66276 22.4869 6.04943 21.9708 5.54259C21.4641 5.02665 20.8511 4.62732 20.1743 4.37242C19.529 4.12282 18.7904 3.95034 17.7102 3.90096C16.6286 3.85226 16.2843 3.84009 13.528 3.84009ZM13.528 5.6684C16.237 5.6684 16.5583 5.67855 17.6283 5.72725C18.6172 5.77257 19.1543 5.93693 19.5121 6.07695C19.9856 6.26025 20.3238 6.48076 20.6789 6.8352C21.034 7.19031 21.2538 7.52851 21.4372 8.00199C21.5765 8.35981 21.7415 8.89687 21.7869 9.88577C21.8356 10.9558 21.8457 11.2771 21.8457 13.9861C21.8457 16.6951 21.8356 17.0164 21.7869 18.0865C21.7415 19.0754 21.5772 19.6124 21.4372 19.9702C21.2748 20.4109 21.0157 20.8097 20.6789 21.137C20.3516 21.4739 19.9529 21.733 19.5121 21.8953C19.1543 22.0346 18.6172 22.1997 17.6283 22.245C16.5583 22.2937 16.2377 22.3038 13.528 22.3038C10.8183 22.3038 10.4977 22.2937 9.42764 22.245C8.43874 22.1997 7.90168 22.0353 7.54386 21.8953C7.10315 21.7329 6.70445 21.4738 6.37707 21.137C6.04034 20.8096 5.78124 20.4109 5.61882 19.9702C5.47948 19.6124 5.31444 19.0754 5.26912 18.0865C5.22042 17.0164 5.21027 16.6951 5.21027 13.9861C5.21027 11.2771 5.22042 10.9558 5.26912 9.88577C5.31444 8.89687 5.4788 8.35981 5.61882 8.00199C5.80212 7.52851 6.02263 7.19031 6.37707 6.8352C6.7044 6.49838 7.10312 6.23927 7.54386 6.07695C7.90168 5.93761 8.43874 5.77257 9.42764 5.72725C10.4977 5.67855 10.819 5.6684 13.528 5.6684Z" fill="white"/>
<path fill-rule="evenodd" clip-rule="evenodd" d="M13.528 17.3715C13.0835 17.3715 12.6432 17.2839 12.2325 17.1138C11.8218 16.9437 11.4486 16.6943 11.1342 16.3799C10.8198 16.0656 10.5705 15.6924 10.4004 15.2816C10.2302 14.8709 10.1427 14.4307 10.1427 13.9861C10.1427 13.5415 10.2302 13.1013 10.4004 12.6906C10.5705 12.2798 10.8198 11.9066 11.1342 11.5923C11.4486 11.2779 11.8218 11.0285 12.2325 10.8584C12.6432 10.6883 13.0835 10.6007 13.528 10.6007C14.4259 10.6007 15.287 10.9574 15.9219 11.5923C16.5568 12.2272 16.9134 13.0882 16.9134 13.9861C16.9134 14.884 16.5568 15.745 15.9219 16.3799C15.287 17.0148 14.4259 17.3715 13.528 17.3715ZM13.528 8.77104C12.1449 8.77104 10.8185 9.32048 9.84044 10.2985C8.86243 11.2765 8.31299 12.603 8.31299 13.9861C8.31299 15.3692 8.86243 16.6957 9.84044 17.6737C10.8185 18.6517 12.1449 19.2012 13.528 19.2012C14.9112 19.2012 16.2376 18.6517 17.2156 17.6737C18.1937 16.6957 18.7431 15.3692 18.7431 13.9861C18.7431 12.603 18.1937 11.2765 17.2156 10.2985C16.2376 9.32048 14.9112 8.77104 13.528 8.77104ZM20.2603 8.67635C20.2603 9.00329 20.1304 9.31684 19.8992 9.54803C19.668 9.77921 19.3545 9.90909 19.0275 9.90909C18.7006 9.90909 18.387 9.77921 18.1558 9.54803C17.9247 9.31684 17.7948 9.00329 17.7948 8.67635C17.7948 8.3494 17.9247 8.03585 18.1558 7.80467C18.387 7.57348 18.7006 7.4436 19.0275 7.4436C19.3545 7.4436 19.668 7.57348 19.8992 7.80467C20.1304 8.03585 20.2603 8.3494 20.2603 8.67635Z" fill="white"/>
</svg>
