<svg id="visual" viewBox="0 0 900 600" width="900" height="600" xmlns="http://www.w3.org/2000/svg" xmlns:xlink="http://www.w3.org/1999/xlink" version="1.1"><path d="M0 320L25 318.2C50 316.3 100 312.7 150 319.2C200 325.7 250 342.3 300 365.3C350 388.3 400 417.7 450 411.3C500 405 550 363 600 364.3C650 365.7 700 410.3 750 399C800 387.7 850 320.3 875 286.7L900 253L900 601L875 601C850 601 800 601 750 601C700 601 650 601 600 601C550 601 500 601 450 601C400 601 350 601 300 601C250 601 200 601 150 601C100 601 50 601 25 601L0 601Z" fill="#ffdb1f"></path><path d="M0 442L25 441.2C50 440.3 100 438.7 150 422.8C200 407 250 377 300 355.2C350 333.3 400 319.7 450 327.2C500 334.7 550 363.3 600 375.7C650 388 700 384 750 369.8C800 355.7 850 331.3 875 319.2L900 307L900 601L875 601C850 601 800 601 750 601C700 601 650 601 600 601C550 601 500 601 450 601C400 601 350 601 300 601C250 601 200 601 150 601C100 601 50 601 25 601L0 601Z" fill="#ff993d"></path><path d="M0 408L25 403.5C50 399 100 390 150 382.5C200 375 250 369 300 389.5C350 410 400 457 450 455.7C500 454.3 550 404.7 600 393.8C650 383 700 411 750 413.7C800 416.3 850 393.7 875 382.3L900 371L900 601L875 601C850 601 800 601 750 601C700 601 650 601 600 601C550 601 500 601 450 601C400 601 350 601 300 601C250 601 200 601 150 601C100 601 50 601 25 601L0 601Z" fill="#ea635d"></path><path d="M0 521L25 502.7C50 484.3 100 447.7 150 450.8C200 454 250 497 300 513.3C350 529.7 400 519.3 450 518.2C500 517 550 525 600 530.3C650 535.7 700 538.3 750 537.7C800 537 850 533 875 531L900 529L900 601L875 601C850 601 800 601 750 601C700 601 650 601 600 601C550 601 500 601 450 601C400 601 350 601 300 601C250 601 200 601 150 601C100 601 50 601 25 601L0 601Z" fill="#ae446e"></path><path d="M0 460L25 473C50 486 100 512 150 514.8C200 517.7 250 497.3 300 484C350 470.7 400 464.3 450 474.5C500 484.7 550 511.3 600 515.5C650 519.7 700 501.3 750 486C800 470.7 850 458.3 875 452.2L900 446L900 601L875 601C850 601 800 601 750 601C700 601 650 601 600 601C550 601 500 601 450 601C400 601 350 601 300 601C250 601 200 601 150 601C100 601 50 601 25 601L0 601Z" fill="#653566"></path><path d="M0 492L25 504.7C50 517.3 100 542.7 150 553.7C200 564.7 250 561.3 300 560.5C350 559.7 400 561.3 450 565.5C500 569.7 550 576.3 600 573.3C650 570.3 700 557.7 750 544.7C800 531.7 850 518.3 875 511.7L900 505L900 601L875 601C850 601 800 601 750 601C700 601 650 601 600 601C550 601 500 601 450 601C400 601 350 601 300 601C250 601 200 601 150 601C100 601 50 601 25 601L0 601Z" fill="#232445"></path></svg>