<svg width="28" height="28" viewBox="0 0 28 28" fill="none" xmlns="http://www.w3.org/2000/svg">
<path fill-rule="evenodd" clip-rule="evenodd" d="M0.966309 14.0141C0.966309 10.6826 2.28977 7.48743 4.64556 5.13164C7.00134 2.77586 10.1965 1.45239 13.5281 1.45239C16.8596 1.45239 20.0548 2.77586 22.4106 5.13164C24.7663 7.48743 26.0898 10.6826 26.0898 14.0141C26.0898 17.3457 24.7663 20.5409 22.4106 22.8966C20.0548 25.2524 16.8596 26.5759 13.5281 26.5759C10.1965 26.5759 7.00134 25.2524 4.64556 22.8966C2.28977 20.5409 0.966309 17.3457 0.966309 14.0141ZM9.97018 19.0272C11.832 18.5912 13.7864 18.7969 15.5167 19.6109C15.6601 19.6788 15.8154 19.7178 15.9739 19.7256C16.1323 19.7334 16.2908 19.71 16.4402 19.6566C16.5896 19.6032 16.727 19.5209 16.8446 19.4144C16.9622 19.3079 17.0577 19.1793 17.1255 19.0359C17.1934 18.8926 17.2324 18.7372 17.2403 18.5787C17.2481 18.4203 17.2247 18.2618 17.1713 18.1124C17.1179 17.963 17.0356 17.8256 16.9291 17.708C16.8226 17.5904 16.694 17.495 16.5506 17.4271C14.3266 16.3787 11.8134 16.1131 9.4194 16.6734C9.26484 16.7095 9.11892 16.7758 8.98997 16.8683C8.86101 16.9609 8.75155 17.078 8.66784 17.2128C8.58412 17.3477 8.52779 17.4977 8.50205 17.6543C8.47632 17.811 8.48169 17.9711 8.51785 18.1257C8.55402 18.2803 8.62027 18.4262 8.71283 18.5551C8.80539 18.6841 8.92244 18.7935 9.0573 18.8773C9.19216 18.961 9.34219 19.0173 9.49883 19.043C9.65546 19.0688 9.81563 19.0634 9.97018 19.0272ZM11.9047 14.9398C10.9268 14.9398 9.97598 15.0539 9.06767 15.2684C8.91324 15.3048 8.75315 15.3104 8.59653 15.285C8.43992 15.2595 8.28986 15.2035 8.15491 15.12C8.01995 15.0366 7.90276 14.9274 7.81002 14.7986C7.71727 14.6699 7.65079 14.5242 7.61437 14.3697C7.57795 14.2153 7.57231 14.0552 7.59776 13.8986C7.62321 13.742 7.67926 13.5919 7.76271 13.457C7.84616 13.322 7.95537 13.2048 8.08411 13.1121C8.21284 13.0193 8.35859 12.9529 8.51302 12.9164C11.899 12.1189 15.4577 12.5419 18.5624 14.1108C18.8463 14.2566 19.0609 14.5089 19.1593 14.8125C19.2578 15.1161 19.2321 15.4464 19.0878 15.7311C18.9435 16.0157 18.6925 16.2318 18.3894 16.3319C18.0864 16.4321 17.756 16.4082 17.4705 16.2656C15.7457 15.391 13.8385 14.9368 11.9047 14.9398ZM8.15549 11.5115C9.38399 11.2206 10.6422 11.074 11.9047 11.0747C14.6412 11.0747 17.2154 11.7511 19.4727 12.9493C19.7558 13.0992 20.087 13.1305 20.3932 13.0363C20.6995 12.942 20.9558 12.73 21.1057 12.4468C21.2556 12.1636 21.2869 11.8325 21.1927 11.5262C21.0984 11.22 20.8864 10.9637 20.6032 10.8138C17.9243 9.39479 14.9381 8.65488 11.9066 8.65897C10.4554 8.65821 9.00908 8.82684 7.59698 9.16144C7.44072 9.19621 7.29293 9.2617 7.16221 9.35409C7.03148 9.44648 6.92043 9.56394 6.83549 9.69963C6.75056 9.83532 6.69345 9.98654 6.66748 10.1445C6.64151 10.3025 6.6472 10.464 6.68421 10.6197C6.72123 10.7755 6.78883 10.9223 6.88309 11.0517C6.97736 11.1811 7.0964 11.2904 7.23329 11.3734C7.37019 11.4564 7.52222 11.5113 7.68054 11.535C7.83885 11.5587 8.0003 11.5507 8.15549 11.5115Z" fill="white"/>
</svg>
