<svg width="453" height="75" viewBox="0 0 453 75" fill="none" xmlns="http://www.w3.org/2000/svg">
<path d="M51.9544 66.1535L37.7505 74.2262C35.5705 73.0681 33.9696 71.5013 32.9477 69.5257C31.9259 67.4819 31.4149 64.8932 31.4149 61.7595L22.6269 74.5328C16.2232 74.5328 11.4886 73 8.42301 69.9344C5.35742 66.8007 3.82462 61.9979 3.82462 55.5261V30.2861L0.0437268 29.9796V27.0161H18.2329V51.4387C18.2329 54.5043 19.0163 56.8886 20.5832 58.5917C22.2182 60.2267 24.3641 61.0783 27.0209 61.1464L31.4149 57.0589V30.2861L27.7362 29.9796V27.0161H45.8232V55.8327C45.8232 58.3533 45.9595 60.2267 46.232 61.4529C46.5726 62.6792 47.0835 63.7351 47.7647 64.6207L50.8303 63.0879L51.9544 66.1535ZM52.6386 70.0366L56.4194 69.73L55.9085 8.52042L52.0254 9.33791L51.0036 6.37451L69.908 0.652076L71.3387 3.10455L70.8277 69.73L74.6086 70.0366V73H52.6386V70.0366ZM110.177 64.9273L97.7099 73.9197C92.6687 73.9197 88.99 72.6934 86.6738 70.241C84.4257 67.7204 83.3016 63.701 83.3016 58.183V31.0014H76.4552V27.7315C79.3164 26.1646 82.416 23.9506 85.7541 21.0893C89.1603 18.16 92.26 15.0944 95.0531 11.8926L98.4252 12.9144L97.9143 27.0161H109.87V31.308L97.7099 31.1036V54.6065C97.7099 57.8764 98.323 60.2608 99.5493 61.7595C100.844 63.2582 102.547 64.0076 104.659 64.0076L108.439 61.8617L110.177 64.9273ZM118.136 5.45483L131.216 2.49142V14.1407L118.136 16.0822V5.45483ZM132.238 69.73L136.019 70.0366V73H114.049V70.0366L117.829 69.73L117.523 33.3517L113.64 34.1692L112.618 31.2058L131.114 25.4834L132.544 27.9358L132.238 69.73ZM216.591 70.0366V73H194.723V70.0366L198.504 69.73V48.1687C198.504 45.1713 197.721 42.855 196.154 41.22C194.655 39.5169 192.543 38.6313 189.818 38.5632L186.037 42.3441V44.0813V69.73L189.716 70.0366V73H167.848V70.0366L171.629 69.73V48.1687C171.629 45.1713 170.846 42.855 169.279 41.22C167.78 39.5851 165.668 38.7335 162.943 38.6654L159.571 42.0375L159.162 69.73L162.943 70.0366V73H140.973V70.0366L144.754 69.73L144.447 33.1473L140.564 34.067L139.542 31.0014L155.688 25.9943L159.264 37.4392L167.746 25.279C172.991 25.279 177.045 26.3349 179.906 28.4468C182.835 30.5586 184.709 33.8286 185.526 38.2566L194.621 25.1768C200.888 25.1768 205.487 26.7096 208.416 29.7752C211.413 32.8408 212.912 37.6095 212.912 44.0813V69.73L216.591 70.0366ZM243.09 25.4834C249.902 25.4834 255.386 27.493 259.542 31.5123C263.698 35.5317 265.775 41.2541 265.775 48.6797C265.775 51.8815 265.196 55.1855 264.038 58.5917C262.948 61.9979 261.313 64.9954 259.133 67.5841C256.953 69.696 254.399 71.3991 251.469 72.6934C248.608 73.9197 245.576 74.5328 242.375 74.5328C235.562 74.5328 230.078 72.5231 225.923 68.5038C221.767 64.4845 219.689 58.762 219.689 51.3365C219.689 48.2028 220.268 44.9328 221.426 41.5266C222.585 38.1204 224.254 35.1229 226.434 32.5342C228.614 30.4224 231.134 28.7193 233.995 27.4249C236.925 26.1305 239.956 25.4834 243.09 25.4834ZM234.404 46.4316C234.404 52.9034 235.664 57.7402 238.185 60.942C240.774 64.1439 244.555 66.0513 249.528 66.6644C250.005 64.6207 250.379 62.3386 250.652 59.818C250.924 57.2974 251.06 55.2196 251.06 53.5846C251.06 47.0447 249.766 42.2079 247.177 39.0741C244.657 35.8723 240.944 33.9648 236.039 33.3517C235.562 35.4636 235.153 37.7798 234.813 40.3004C234.54 42.821 234.404 44.8647 234.404 46.4316ZM333.859 27.0161V30.2861L330.896 30.3883L312.809 72.3869L302.488 73L286.343 30.3883L283.379 30.2861V27.0161H307.597V30.2861L303.306 30.3883L312.196 61.8617L320.575 30.3883L316.283 30.2861V27.0161H333.859ZM358.653 25.4834C364.648 25.4834 369.349 27.6633 372.755 32.0233C376.229 36.3151 377.932 42.1397 377.864 49.4971L349.661 50.4168C350.138 54.4361 351.534 57.5017 353.85 59.6136C356.167 61.7254 359.232 62.7814 363.047 62.7814C368.361 62.7814 372.687 61.3167 376.025 58.3874L377.864 60.0223C375.48 64.5867 372.244 68.1632 368.156 70.7519C364.137 73.2725 359.845 74.5328 355.281 74.5328C349.082 74.5328 344.143 72.4891 340.464 68.4016C336.853 64.246 335.048 58.6599 335.048 51.6431C335.048 47.4875 335.866 43.366 337.501 39.2785C339.204 35.1911 341.35 31.7848 343.938 29.0599C345.709 28.038 347.992 27.1865 350.785 26.5052C353.578 25.824 356.201 25.4834 358.653 25.4834ZM362.741 46.125C362.672 41.3563 361.991 37.5754 360.697 34.7823C359.402 31.9892 357.563 30.3202 355.179 29.7752C353.476 31.5464 352.079 34.0329 350.989 37.2348C349.967 40.3685 349.456 43.6044 349.456 46.9425V47.249L362.741 46.125ZM381.152 70.0366L384.933 69.73L384.422 8.52042L380.539 9.33791L379.517 6.37451L398.421 0.652076L399.852 3.10455L399.341 69.73L403.122 70.0366V73H381.152V70.0366ZM429.8 25.4834C436.612 25.4834 442.096 27.493 446.252 31.5123C450.407 35.5317 452.485 41.2541 452.485 48.6797C452.485 51.8815 451.906 55.1855 450.748 58.5917C449.658 61.9979 448.023 64.9954 445.843 67.5841C443.663 69.696 441.108 71.3991 438.179 72.6934C435.318 73.9197 432.286 74.5328 429.084 74.5328C422.272 74.5328 416.788 72.5231 412.632 68.5038C408.477 64.4845 406.399 58.762 406.399 51.3365C406.399 48.2028 406.978 44.9328 408.136 41.5266C409.294 38.1204 410.963 35.1229 413.143 32.5342C415.323 30.4224 417.844 28.7193 420.705 27.4249C423.634 26.1305 426.666 25.4834 429.8 25.4834ZM421.114 46.4316C421.114 52.9034 422.374 57.7402 424.895 60.942C427.483 64.1439 431.264 66.0513 436.237 66.6644C436.714 64.6207 437.089 62.3386 437.361 59.818C437.634 57.2974 437.77 55.2196 437.77 53.5846C437.77 47.0447 436.476 42.2079 433.887 39.0741C431.366 35.8723 427.654 33.9648 422.749 33.3517C422.272 35.4636 421.863 37.7798 421.522 40.3004C421.25 42.821 421.114 44.8647 421.114 46.4316Z" fill="black"/>
</svg>
