<svg width="349" height="58" viewBox="0 0 349 58" fill="none" xmlns="http://www.w3.org/2000/svg">
<path d="M40.536 50.7293L29.6013 56.944C27.9231 56.0524 26.6907 54.8462 25.904 53.3253C25.1173 51.752 24.724 49.7591 24.724 47.3467L17.9587 57.18C13.0289 57.18 9.384 56 7.024 53.64C4.664 51.2276 3.484 47.5302 3.484 42.548V23.1173L0.573333 22.8813V20.6H14.576V39.4013C14.576 41.7613 15.1791 43.5969 16.3853 44.908C17.644 46.1667 19.296 46.8222 21.3413 46.8747L24.724 43.728V23.1173L21.892 22.8813V20.6H35.816V42.784C35.816 44.7244 35.9209 46.1667 36.1307 47.1107C36.3929 48.0547 36.7862 48.8676 37.3107 49.5493L39.6707 48.3693L40.536 50.7293ZM41.0627 53.7187L43.9734 53.4827L43.58 6.36133L40.5907 6.99067L39.804 4.70933L54.3574 0.304001L55.4587 2.192L55.0654 53.4827L57.976 53.7187V56H41.0627V53.7187ZM85.3576 49.7853L75.7602 56.708C71.8793 56.708 69.0473 55.764 67.2642 53.876C65.5336 51.9356 64.6682 48.8413 64.6682 44.5933V23.668H59.3976V21.1507C61.6002 19.9444 63.9864 18.24 66.5562 16.0373C69.1784 13.7822 71.5647 11.4222 73.7149 8.95733L76.3109 9.744L75.9176 20.6H85.1216V23.904L75.7602 23.7467V41.84C75.7602 44.3573 76.2322 46.1929 77.1762 47.3467C78.1727 48.5004 79.4838 49.0773 81.1096 49.0773L84.0202 47.4253L85.3576 49.7853ZM91.485 4.00133L101.554 1.72V10.688L91.485 12.1827V4.00133ZM102.341 53.4827L105.252 53.7187V56H88.3383V53.7187L91.249 53.4827L91.013 25.4773L88.0236 26.1067L87.237 23.8253L101.476 19.42L102.577 21.308L102.341 53.4827ZM167.279 53.7187V56H150.444V53.7187L153.355 53.4827V36.884C153.355 34.5764 152.752 32.7933 151.546 31.5347C150.392 30.2236 148.766 29.5418 146.668 29.4893L143.758 32.4V33.7373V53.4827L146.59 53.7187V56H129.755V53.7187L132.666 53.4827V36.884C132.666 34.5764 132.063 32.7933 130.856 31.5347C129.703 30.276 128.077 29.6204 125.979 29.568L123.383 32.164L123.068 53.4827L125.979 53.7187V56H109.066V53.7187L111.976 53.4827L111.74 25.32L108.751 26.028L107.964 23.668L120.394 19.8133L123.147 28.624L129.676 19.2627C133.715 19.2627 136.835 20.0756 139.038 21.7013C141.293 23.3271 142.735 25.8444 143.364 29.2533L150.366 19.184C155.191 19.184 158.731 20.364 160.986 22.724C163.293 25.084 164.447 28.7551 164.447 33.7373V53.4827L167.279 53.7187ZM187.679 19.42C192.923 19.42 197.145 20.9671 200.344 24.0613C203.543 27.1556 205.143 31.5609 205.143 37.2773C205.143 39.7422 204.697 42.2858 203.806 44.908C202.966 47.5302 201.708 49.8378 200.03 51.8307C198.351 53.4564 196.385 54.7676 194.13 55.764C191.927 56.708 189.593 57.18 187.128 57.18C181.884 57.18 177.662 55.6329 174.463 52.5387C171.264 49.4444 169.664 45.0391 169.664 39.3227C169.664 36.9102 170.11 34.3929 171.002 31.7707C171.893 29.1484 173.178 26.8409 174.856 24.848C176.534 23.2222 178.475 21.9111 180.678 20.9147C182.933 19.9182 185.266 19.42 187.679 19.42ZM180.992 35.5467C180.992 40.5289 181.962 44.2524 183.903 46.7173C185.896 49.1822 188.806 50.6507 192.635 51.1227C193.002 49.5493 193.29 47.7924 193.5 45.852C193.71 43.9116 193.815 42.312 193.815 41.0533C193.815 36.0187 192.818 32.2951 190.826 29.8827C188.885 27.4178 186.027 25.9493 182.251 25.4773C181.884 27.1031 181.569 28.8862 181.307 30.8267C181.097 32.7671 180.992 34.3404 180.992 35.5467ZM257.556 20.6V23.1173L255.275 23.196L241.351 55.528L233.406 56L220.976 23.196L218.695 23.1173V20.6H237.339V23.1173L234.035 23.196L240.879 47.4253L247.33 23.196L244.026 23.1173V20.6H257.556ZM276.644 19.42C281.259 19.42 284.877 21.0982 287.5 24.4547C290.174 27.7587 291.485 32.2427 291.433 37.9067L269.721 38.6147C270.088 41.7089 271.163 44.0689 272.946 45.6947C274.729 47.3204 277.089 48.1333 280.026 48.1333C284.117 48.1333 287.447 47.0058 290.017 44.7507L291.433 46.0093C289.597 49.5231 287.106 52.2764 283.96 54.2693C280.865 56.2098 277.561 57.18 274.048 57.18C269.275 57.18 265.473 55.6067 262.641 52.46C259.861 49.2609 258.472 44.9604 258.472 39.5587C258.472 36.3596 259.101 33.1867 260.36 30.04C261.671 26.8933 263.323 24.2711 265.316 22.1733C266.679 21.3867 268.436 20.7311 270.586 20.2067C272.736 19.6822 274.756 19.42 276.644 19.42ZM279.79 35.3107C279.738 31.6396 279.213 28.7289 278.217 26.5787C277.22 24.4284 275.804 23.1436 273.969 22.724C272.658 24.0876 271.583 26.0018 270.744 28.4667C269.957 30.8791 269.564 33.3702 269.564 35.94V36.176L279.79 35.3107ZM293.964 53.7187L296.874 53.4827L296.481 6.36133L293.492 6.99067L292.705 4.70933L307.258 0.304001L308.36 2.192L307.966 53.4827L310.877 53.7187V56H293.964V53.7187ZM331.415 19.42C336.659 19.42 340.881 20.9671 344.08 24.0613C347.279 27.1556 348.879 31.5609 348.879 37.2773C348.879 39.7422 348.433 42.2858 347.541 44.908C346.702 47.5302 345.443 49.8378 343.765 51.8307C342.087 53.4564 340.12 54.7676 337.865 55.764C335.663 56.708 333.329 57.18 330.864 57.18C325.619 57.18 321.398 55.6329 318.199 52.5387C314.999 49.4444 313.4 45.0391 313.4 39.3227C313.4 36.9102 313.846 34.3929 314.737 31.7707C315.629 29.1484 316.914 26.8409 318.592 24.848C320.27 23.2222 322.211 21.9111 324.413 20.9147C326.668 19.9182 329.002 19.42 331.415 19.42ZM324.728 35.5467C324.728 40.5289 325.698 44.2524 327.639 46.7173C329.631 49.1822 332.542 50.6507 336.371 51.1227C336.738 49.5493 337.026 47.7924 337.236 45.852C337.446 43.9116 337.551 42.312 337.551 41.0533C337.551 36.0187 336.554 32.2951 334.561 29.8827C332.621 27.4178 329.763 25.9493 325.987 25.4773C325.619 27.1031 325.305 28.8862 325.043 30.8267C324.833 32.7671 324.728 34.3404 324.728 35.5467Z" fill="white"/>
</svg>
