<svg width="28" height="28" viewBox="0 0 28 28" fill="none" xmlns="http://www.w3.org/2000/svg">
<path fill-rule="evenodd" clip-rule="evenodd" d="M22.3123 7.04812C23.2819 7.3086 24.0488 8.0756 24.3093 9.04519C24.7869 10.8107 24.8014 14.472 24.8014 14.472C24.8014 14.472 24.8014 18.1478 24.3238 19.8989C24.0633 20.8685 23.2963 21.6355 22.3267 21.896C20.5757 22.3735 13.528 22.3735 13.528 22.3735C13.528 22.3735 6.48034 22.3735 4.72928 21.896C3.75968 21.6355 2.99269 20.8685 2.7322 19.8989C2.25464 18.1334 2.25464 14.472 2.25464 14.472C2.25464 14.472 2.25464 10.8107 2.71773 9.05967C2.97822 8.09007 3.74521 7.32308 4.71481 7.06259C6.46587 6.58502 13.5135 6.57056 13.5135 6.57056C13.5135 6.57056 20.5612 6.57056 22.3123 7.04812ZM17.117 14.472L11.2704 17.8584V11.0857L17.117 14.472Z" fill="white"/>
</svg>
